<?xml version="1.0" encoding="UTF-8" standalone="no"?>
<svg
   version="1.1"
   id="Layer_1"
   x="0px"
   y="0px"
   width="100%"
   viewBox="0 0 500 500"
   enable-background="new 0 0 500 500"
   xml:space="preserve"
   sodipodi:docname="chart.svg"
   inkscape:version="1.3.2 (091e20e, 2023-11-25, custom)"
   xmlns:inkscape="http://www.inkscape.org/namespaces/inkscape"
   xmlns:sodipodi="http://sodipodi.sourceforge.net/DTD/sodipodi-0.dtd"
   xmlns="http://www.w3.org/2000/svg"
   xmlns:svg="http://www.w3.org/2000/svg"><defs
   id="defs4" /><sodipodi:namedview
   id="namedview4"
   pagecolor="#ffffff"
   bordercolor="#000000"
   borderopacity="0.25"
   inkscape:showpageshadow="2"
   inkscape:pageopacity="0.0"
   inkscape:pagecheckerboard="0"
   inkscape:deskcolor="#d1d1d1"
   inkscape:zoom="1.574"
   inkscape:cx="250"
   inkscape:cy="250"
   inkscape:window-width="1920"
   inkscape:window-height="1001"
   inkscape:window-x="-9"
   inkscape:window-y="-9"
   inkscape:window-maximized="1"
   inkscape:current-layer="Layer_1" />
<path
   fill="#014AAD"
   opacity="1.000000"
   stroke="none"
   d=" M263.000000,501.000000   C254.645767,501.000000 246.291534,501.000000 237.301422,500.617554   C217.187363,498.679504 197.840347,495.933167 179.368088,489.515411   C87.537621,457.610809 31.057264,393.993988 14.554326,298.179382   C2.483259,228.095856 20.979206,164.389236 65.751968,108.809753   C72.806046,100.053040 80.951614,92.175575 89.059120,83.385696   C90.838318,85.486122 91.854759,86.797523 92.984024,88.003265   C145.145569,143.697235 197.337646,199.362640 249.424072,255.126755   C251.946014,257.826752 254.436279,258.805756 258.062225,258.801056   C333.207489,258.703461 408.352936,258.727600 483.498322,258.727600   C485.567841,258.727600 487.637360,258.727570 489.843811,258.727570   C490.481659,280.250671 487.699860,300.503967 482.621918,320.406250   C457.076660,420.526917 369.654572,493.047546 266.491028,499.944580   C265.309113,500.023590 264.162872,500.636383 263.000000,501.000000  z"
   id="path1" />

<path
   fill="#023D01"
   opacity="1.000000"
   stroke="none"
   d=" M259.531342,0.999999   C264.971558,1.657888 269.928314,2.470718 274.917206,2.946701   C295.912689,4.949841 316.284546,9.748718 336.253021,16.403507   C336.706879,16.554760 337.093964,16.906172 338.191864,17.583593   C310.885864,91.725235 283.543488,165.965530 255.861008,241.129349   C199.122116,178.623688 142.898483,116.685654 85.833084,53.820301   C97.795944,46.603092 108.906639,39.293175 120.559265,32.984226   C154.913773,14.384068 191.892471,4.721201 230.866791,1.401248   C240.354233,1.000000 249.708450,1.000000 259.531342,0.999999  z"
   id="path3" />
<path
   fill="#1E8FFF"
   opacity="1.000000"
   stroke="none"
   d=" M388.893555,96.098770   C434.786285,134.998657 460.830688,184.074493 468.198578,244.045715   C401.821808,244.588760 336.262115,245.125137 269.610077,245.670441   C292.204987,184.838715 314.517395,124.767624 337.036438,64.140213   C356.105072,72.362473 373.014404,83.039314 388.893555,96.098770  z"
   id="path4" />
</svg>
