<?xml version="1.0" encoding="UTF-8" standalone="no"?>
<svg
   version="1.1"
   id="Layer_1"
   x="0px"
   y="0px"
   width="100%"
   viewBox="0 0 500 500"
   enable-background="new 0 0 500 500"
   xml:space="preserve"
   sodipodi:docname="chem.svg"
   inkscape:version="1.3.2 (091e20e, 2023-11-25, custom)"
   xmlns:inkscape="http://www.inkscape.org/namespaces/inkscape"
   xmlns:sodipodi="http://sodipodi.sourceforge.net/DTD/sodipodi-0.dtd"
   xmlns="http://www.w3.org/2000/svg"
   xmlns:svg="http://www.w3.org/2000/svg"><defs
   id="defs9" /><sodipodi:namedview
   id="namedview9"
   pagecolor="#ffffff"
   bordercolor="#000000"
   borderopacity="0.25"
   inkscape:showpageshadow="2"
   inkscape:pageopacity="0.0"
   inkscape:pagecheckerboard="0"
   inkscape:deskcolor="#d1d1d1"
   inkscape:zoom="1.574"
   inkscape:cx="398.66582"
   inkscape:cy="250"
   inkscape:window-width="1920"
   inkscape:window-height="1001"
   inkscape:window-x="-9"
   inkscape:window-y="-9"
   inkscape:window-maximized="1"
   inkscape:current-layer="Layer_1" />


<path
   fill="#2090FF"
   opacity="1.000000"
   stroke="none"
   d=" M1.000004,410.437500   C35.905670,367.157379 70.902908,324.388916 105.685158,281.446350   C129.280899,252.314774 152.608841,222.965714 175.931076,193.614227   C177.568451,191.553558 179.095596,188.670959 179.107788,186.162964   C179.303726,145.831696 179.246155,105.499207 179.236832,65.166992   C179.236649,64.349289 179.124939,63.531616 179.033112,62.273594   C168.992249,60.454185 159.938660,56.317677 155.504333,46.720570   C152.955292,41.203789 151.280197,34.598576 151.565125,28.595013   C152.221909,14.756139 162.935898,4.266380 177.901794,1.919903   C216.252426,1.980214 253.731308,1.999544 291.210175,1.981651   C301.532013,1.976723 311.853790,1.860692 322.175598,1.795641   C336.586182,3.710290 347.144562,14.445062 348.744080,28.807999   C350.243103,42.268780 341.691559,55.721703 328.257690,60.227177   C324.752777,61.402668 323.728271,62.919765 323.740570,66.494240   C323.867798,103.486275 323.758057,140.479218 323.942566,177.470749   C323.956177,180.199341 325.155243,183.341492 326.781616,185.580719   C360.651276,232.212128 395.143555,278.399689 428.472198,325.412659   C449.748322,355.424438 469.312744,386.648315 489.707886,417.286621   C497.941986,429.656128 497.014099,439.909790 483.516479,451.247681   C473.041992,460.046173 460.627838,465.434174 448.030914,470.340912   C418.031982,482.026062 386.840790,488.770813 354.883728,491.894592   C323.742767,494.938538 292.552368,497.476990 261.191833,500.618683   C256.975464,501.000000 252.950912,501.000000 248.227356,500.642487   C237.357300,500.173370 227.186340,500.041565 217.014999,499.996216   C216.344849,499.993225 215.671753,500.650085 215.000000,501.000000   C210.975449,501.000000 206.950912,501.000000 202.312836,500.611481   C200.727478,500.052765 199.762070,499.805695 198.782867,499.724121   C186.526169,498.703125 174.092453,498.684021 162.040665,496.527405   C118.404160,488.718872 77.577942,472.868958 39.198524,450.875854   C24.241035,442.304565 9.425418,433.138519 1.000000,417.000000   C1.000000,414.958344 1.000000,412.916656 1.000004,410.437500  M295.115509,88.500023   C295.115509,71.906334 295.115509,55.312649 295.115509,38.231884   C297.781097,38.231884 299.576904,38.241169 301.372589,38.230095   C306.204285,38.200294 311.051849,38.391743 315.862762,38.057793   C320.107819,37.763119 322.965485,34.335011 322.901093,30.379725   C322.836517,26.413120 319.872375,23.305222 315.628815,22.902206   C313.975922,22.745232 312.298737,22.829264 310.632599,22.829140   C271.803772,22.826239 232.974945,22.825504 194.146118,22.829485   C191.146866,22.829792 187.970444,22.261742 185.201782,23.071079   C182.781403,23.778601 179.925797,25.633518 178.920197,27.764009   C178.010880,29.690498 178.515305,33.388546 179.906952,35.004406   C181.482422,36.833691 184.696976,37.928581 187.275284,38.085369   C194.038483,38.496643 200.843262,38.224182 208.175568,38.224182   C208.175568,40.430111 208.232056,42.050930 208.166061,43.666744   C207.835068,51.769531 207.103104,59.874611 207.182190,67.972343   C207.590591,109.793259 208.160477,151.612869 208.819504,193.430649   C208.878616,197.181747 207.823975,200.009995 205.501709,202.903397   C154.403366,266.568939 103.383553,330.297485 52.356735,394.020447   C46.448112,401.399200 40.586620,408.815704 34.404991,416.589844   C38.216888,419.993744 41.537334,423.256012 45.157871,426.141754   C63.507778,440.767426 84.467827,450.434723 106.502159,457.953583   C136.627686,468.233459 167.734558,473.658600 199.378983,476.207367   C252.293488,480.469269 304.902649,478.422791 357.043213,467.963776   C388.201080,461.713745 418.389771,452.476654 446.583649,437.510315   C452.245697,434.504730 457.556763,430.837891 463.147369,427.403595   C462.216949,425.885254 461.836639,425.161682 461.362579,424.505829   C433.457153,385.898529 405.587097,347.265625 377.619171,308.703644   C350.916656,271.886414 324.079926,235.166367 297.438995,198.304749   C296.015472,196.335083 295.222717,193.450867 295.212311,190.987839   C295.069366,157.159042 295.115723,123.329430 295.115509,88.500023  z"
   id="path3" />




<path
   fill="#014BAD"
   opacity="1.000000"
   stroke="none"
   d=" M225.291382,306.988190   C239.908661,307.705078 254.525055,308.973663 269.143433,308.997162   C286.808167,309.025574 304.418640,307.490753 321.214630,301.307495   C326.804077,299.249786 332.172272,296.591156 338.271729,293.932587   C369.652954,335.892151 401.330139,378.247498 433.615173,421.415558   C426.070282,424.383636 419.131165,427.426392 411.986877,429.869202   C382.615265,439.912231 352.405243,446.272064 321.632385,450.151031   C286.374146,454.595398 250.993668,456.492035 215.496124,454.778442   C202.227539,454.137939 189.019180,452.250336 175.436661,450.422974   C186.736969,417.031403 198.421448,384.161438 210.013962,351.259064   C215.201492,336.535614 220.204590,321.747162 225.291382,306.988190  z"
   id="path8" />
<path
   fill="#023D02"
   opacity="1.000000"
   stroke="none"
   d=" M224.864838,306.908203   C220.204590,321.747162 215.201492,336.535614 210.013962,351.259064   C198.421448,384.161438 186.736969,417.031403 175.039734,450.262024   C137.915771,445.229706 102.470688,435.450531 71.035553,412.554535   C103.702538,371.268585 135.980423,330.474426 168.366898,289.543030   C185.932373,299.637329 205.116501,303.460083 224.864838,306.908203  z"
   id="path9" />
</svg>
