<?xml version="1.0" encoding="UTF-8" standalone="no"?>
<svg
   version="1.1"
   id="Layer_1"
   x="0px"
   y="0px"
   width="100%"
   viewBox="0 0 500 500"
   enable-background="new 0 0 500 500"
   xml:space="preserve"
   sodipodi:docname="compliance.svg"
   inkscape:version="1.3.2 (091e20e, 2023-11-25, custom)"
   xmlns:inkscape="http://www.inkscape.org/namespaces/inkscape"
   xmlns:sodipodi="http://sodipodi.sourceforge.net/DTD/sodipodi-0.dtd"
   xmlns="http://www.w3.org/2000/svg"
   xmlns:svg="http://www.w3.org/2000/svg"><defs
   id="defs7" /><sodipodi:namedview
   id="namedview7"
   pagecolor="#ffffff"
   bordercolor="#000000"
   borderopacity="0.25"
   inkscape:showpageshadow="2"
   inkscape:pageopacity="0.0"
   inkscape:pagecheckerboard="0"
   inkscape:deskcolor="#d1d1d1"
   inkscape:zoom="1.574"
   inkscape:cx="583.54511"
   inkscape:cy="250"
   inkscape:window-width="1920"
   inkscape:window-height="1001"
   inkscape:window-x="-9"
   inkscape:window-y="-9"
   inkscape:window-maximized="1"
   inkscape:current-layer="Layer_1" />

<path
   fill="#023D01"
   opacity="1.000000"
   stroke="none"
   d=" M348.571533,1.000001   C349.179016,1.255885 349.321869,1.698313 349.542175,1.740997   C363.539062,4.452579 366.396088,7.787078 367.090393,21.949772   C368.300079,46.625584 371.946594,70.917175 378.693390,94.775978   C383.426422,93.703621 388.046448,92.297005 392.770477,91.652855   C407.975037,89.579643 414.880127,95.685791 419.556061,110.832977   C420.568512,114.112755 418.871033,119.448570 416.534424,122.279724   C412.153809,127.587547 406.429810,131.798111 401.183380,136.371933   C399.842285,137.541077 398.197388,138.361710 395.413269,140.175613   C405.503021,152.359741 415.055817,164.267899 425.045746,175.797333   C429.831055,181.320053 435.470642,186.098892 440.665527,191.272705   C442.189819,192.790787 443.726318,194.369720 444.899353,196.155807   C454.815002,211.253967 453.074768,222.555389 437.236389,231.140350   C417.961792,241.587875 397.869568,250.584183 377.828644,259.530884   C370.419312,262.838531 362.135681,263.928528 353.827301,262.214844   C342.908600,259.962708 335.269592,251.178253 333.876404,240.095627   C331.448700,220.782959 328.656494,201.516022 325.980652,182.234955   C325.827332,181.130005 325.347046,180.070435 324.843872,178.413193   C219.574219,235.284164 114.648621,291.969269 9.173228,348.951385   C9.173228,318.181519 9.173228,288.262146 9.173228,258.089172   C106.675385,215.040588 204.277496,171.947876 302.656006,128.512375   C294.894592,116.718643 287.775238,104.917534 279.642426,93.861977   C273.443115,85.434799 265.928436,77.979080 259.065460,70.033730   C257.220795,67.898178 255.426666,65.672539 253.939575,63.282757   C247.998047,53.734592 248.961853,44.592407 257.597839,37.346718   C262.758545,33.016792 268.652924,29.186968 274.812958,26.494732   C291.281372,19.297235 307.992310,12.629492 324.777100,6.195214   C330.463013,4.015589 336.658234,3.164717 342.810364,1.353314   C344.714355,1.000000 346.428711,1.000000 348.571533,1.000001  z"
   id="path2" />
<path
   fill="#004AAD"
   opacity="1.000000"
   stroke="none"
   d=" M250.250000,501.000000   C248.758530,500.291779 247.547256,499.523163 246.270584,498.885406   C239.102768,495.304688 234.925552,489.616394 234.756226,481.542572   C234.539780,471.222107 234.551682,460.891418 234.726517,450.569580   C234.923553,438.936432 242.769196,430.958954 254.695160,430.696655   C270.175232,430.356232 285.666260,430.514557 301.944183,430.587341   C304.561462,430.776581 306.387115,430.888184 308.212830,430.889374   C372.136108,430.930237 436.059418,430.960724 499.987610,431.462158   C499.969727,454.580444 499.946930,477.229279 499.462128,499.921173   C418.195129,499.976410 337.390106,499.981903 256.585144,500.042419   C254.723206,500.043793 252.861710,500.666901 251.000000,501.000000   C251.000000,501.000000 250.500000,501.000000 250.250000,501.000000  z"
   id="path3" />
<path
   fill="#1E8EFE"
   opacity="1.000000"
   stroke="none"
   d=" M499.982697,430.992676   C436.059418,430.960724 372.136108,430.930237 308.212830,430.889374   C306.387115,430.888184 304.561462,430.776581 302.408600,430.481934   C302.084076,426.421295 302.084473,422.595215 302.089813,418.769104   C302.111389,403.266785 309.554230,395.707520 324.921356,395.697174   C360.021729,395.673523 395.122131,395.683258 430.222504,395.690735   C453.178864,395.695618 476.135223,395.720215 499.547058,396.308380   C500.001709,406.196625 499.950684,415.513031 500.045135,424.827911   C500.062622,426.554993 500.666656,428.276123 501.000000,430.000000   C501.000000,430.000000 501.000000,430.500000 500.745758,430.734924   C500.321899,430.977448 500.152283,430.985077 499.982697,430.992676  z"
   id="path4" />
<path
   fill="#5284C7"
   opacity="1.000000"
   stroke="none"
   d=" M251.468658,501.000000   C252.861710,500.666901 254.723206,500.043793 256.585144,500.042419   C337.390106,499.981903 418.195129,499.976410 499.730927,499.955566   C500.641144,499.964569 500.820587,499.982269 501.000000,500.000000   C499.503204,500.333282 498.006561,500.957458 496.509583,500.958313   C414.985504,501.005341 333.461426,501.000000 251.468658,501.000000  z"
   id="path5" />
<path
   fill="#2262B8"
   opacity="1.000000"
   stroke="none"
   d=" M501.000000,499.531342   C500.820587,499.982269 500.641144,499.964569 500.192932,499.912476   C499.946930,477.229279 499.969727,454.580444 499.987610,431.462158   C500.152283,430.985077 500.321899,430.977448 500.745758,430.984924   C501.000000,453.687561 501.000000,476.375122 501.000000,499.531342  z"
   id="path6" />
<path
   fill="#3B9DFF"
   opacity="1.000000"
   stroke="none"
   d=" M501.000000,429.531342   C500.666656,428.276123 500.062622,426.554993 500.045135,424.827911   C499.950684,415.513031 500.001709,406.196625 500.008301,396.406891   C500.181854,395.892975 500.349640,395.852936 500.758728,395.906433   C501.000000,407.020905 501.000000,418.041779 501.000000,429.531342  z"
   id="path7" />
</svg>
