<?xml version="1.0" encoding="UTF-8" standalone="no"?>
<svg
   version="1.1"
   id="Layer_1"
   x="0px"
   y="0px"
   width="100%"
   viewBox="0 0 500 500"
   enable-background="new 0 0 500 500"
   xml:space="preserve"
   sodipodi:docname="piramid.svg"
   inkscape:version="1.3.2 (091e20e, 2023-11-25, custom)"
   xmlns:inkscape="http://www.inkscape.org/namespaces/inkscape"
   xmlns:sodipodi="http://sodipodi.sourceforge.net/DTD/sodipodi-0.dtd"
   xmlns="http://www.w3.org/2000/svg"
   xmlns:svg="http://www.w3.org/2000/svg"><defs
   id="defs5" /><sodipodi:namedview
   id="namedview5"
   pagecolor="#ffffff"
   bordercolor="#000000"
   borderopacity="0.25"
   inkscape:showpageshadow="2"
   inkscape:pageopacity="0.0"
   inkscape:pagecheckerboard="0"
   inkscape:deskcolor="#d1d1d1"
   inkscape:zoom="1.574"
   inkscape:cx="250"
   inkscape:cy="250"
   inkscape:window-width="1920"
   inkscape:window-height="1001"
   inkscape:window-x="-9"
   inkscape:window-y="-9"
   inkscape:window-maximized="1"
   inkscape:current-layer="Layer_1" />


<path
   fill="#1e8eff"
   opacity="1"
   stroke="none"
   d="m 501,486.43279 c -5.35968,5.01097 -11.22693,6.09948 -17.57037,6.06311 -72.47187,-0.41551 -144.94428,-0.7567 -217.41681,-0.85112 -83.46404,-0.10869 -166.928332,0.008 -250.392314,0.18528 -5.622723,0.0114 -9.94171,-2.76837 -14.280392,-7.2663 C 1,470.05962 1,455.63219 1.000004,440.6093 c 9.747682,-19.00153 19.513307,-37.39228 29.235512,-55.82001 4.913738,-9.31366 9.934009,-18.55041 14.535511,-28.10988 2.059837,-4.27926 4.31895,-5.88212 8.341285,-5.87751 128.760368,0.14809 257.521168,0.2626 386.280628,-0.19285 8.64246,-0.0306 13.26954,3.39033 17.73716,12.32903 14.01034,28.03181 28.76971,55.45912 43.55444,83.27478 C 501,459.52383 501,472.68057 501,486.43279 Z"
   id="path3"
   style="stroke-width:1.12724" />
<path
   fill="#023d01"
   opacity="1"
   stroke="none"
   d="m 251.55002,0.36467598 c 3.00078,1.22481552 5.828,1.92061982 8.04254,3.78894712 4.10721,3.465078 8.87994,6.7026729 11.59607,11.6214939 26.3811,47.77538 52.39273,95.880153 78.85473,144.525203 -67.15231,0 -133.77415,0 -200.95117,0 10.73394,-20.20502 21.22956,-39.96465 31.7278,-59.72203 13.88608,-26.133178 27.93826,-52.127442 41.57736,-78.467068 5.15091,-9.947352 11.26578,-17.6691167 20.54335,-21.28290933 2.75931,-0.46363669 5.45932,-0.46363669 8.60932,-0.46363669 z"
   id="path4"
   style="stroke-width:1.12724" />
<path
   fill="#014bad"
   opacity="1"
   stroke="none"
   d="m 364,328.30884 c -101.42645,0 -202.35289,0 -304.250828,0 5.417446,-10.22739 10.359394,-19.62895 15.358204,-28.98148 20.301079,-37.98237 40.648714,-75.92471 60.878024,-113.96862 1.67305,-3.14639 3.4084,-4.44657 6.44865,-4.44199 71.63767,0.10779 143.27548,0.0526 214.91294,0.23461 2.09283,0.004 5.03503,1.51404 6.14779,3.57275 25.26459,46.74224 50.32932,93.65888 75.42499,140.54845 0.35263,0.65891 0.62137,1.39026 1.3479,3.03624 -25.67871,0 -50.72318,0 -76.26767,4e-5 z"
   id="path5"
   style="stroke-width:1.12724" />
</svg>
